<?xml version="1.0" encoding="UTF-8" standalone="no"?>
<svg width="400px" height="60px" viewBox="0 0 400 60" version="1.1" xmlns="http://www.w3.org/2000/svg" xmlns:xlink="http://www.w3.org/1999/xlink" xmlns:sketch="http://www.bohemiancoding.com/sketch/ns">
    <!-- Generator: Sketch 3.5.2 (25235) - http://www.bohemiancoding.com/sketch -->
    <title>Slice 1</title>
    <desc>Created with Sketch.</desc>
    <defs></defs>
    <g id="Page-1" stroke="none" stroke-width="1" fill="none" fill-rule="evenodd" sketch:type="MSPage">
        <g id="vidi-banner" sketch:type="MSLayerGroup">
            <g id="Page-1" sketch:type="MSShapeGroup">
                <rect id="main-background" fill="#2C3E50" x="0" y="0" width="400" height="60"></rect>
                <rect id="logo-background" fill="#1C8DC6" x="0" y="0" width="60" height="60"></rect>
                <path d="M23.8828571,46.3 C21.9498701,45.5390649 20.1797922,44.4537662 18.6404675,43.1109091 C20.1802078,44.4548052 21.9498701,45.5406234 23.8827532,46.3001039 L23.8828571,46.3 L23.8828571,46.3 Z M32.2458701,49.4192727 C31.6713247,49.4745455 31.0884675,49.5 30.5,49.5 C28.4432727,49.5 26.4586494,49.1888312 24.5919481,48.6111688 L24.5701299,48.6043117 C24.2465974,48.5038442 23.9267013,48.3954805 23.6080519,48.2782857 C20.7942338,47.244 18.2764156,45.5950649 16.218961,43.4903377 L16.2069091,43.4780779 L15.6981299,42.9444675 L15.6179221,42.852 C12.4861818,39.3674286 10.5621299,34.7786494 10.5062338,29.7464416 L10.506026,29.7316883 L10.5,29.5 C10.5,18.4616623 19.4617662,9.5 30.5,9.5 C41.5382338,9.5 50.5,18.4616623 50.5,29.5 C50.5,32.1210909 49.9946494,34.6251948 49.0703896,36.9184935 L49.0615584,36.9411429 C47.5216104,40.783013 44.8221818,44.0366234 41.3946494,46.2647792 L40.8674805,46.6028571 L40.6090909,46.7514286 L40.6090909,44.4620779 L41.3018701,43.9690909 L41.3946494,43.8961558 C45.1886234,41.0220779 47.8123117,36.6834805 48.4174026,31.7228571 L48.4156364,31.7374026 C47.8047273,36.6913766 45.1836364,41.0255065 41.3947532,43.8961558 L41.3947532,31.7228571 L48.4175065,31.7228571 L48.4197922,31.7058182 C48.5132987,30.9844675 48.559013,30.2475325 48.559013,29.5001039 C48.559013,19.5333506 40.4670649,11.4414026 30.5002078,11.4414026 C20.5332468,11.4414026 12.4415065,19.5332468 12.4415065,29.5001039 L12.4473247,29.7317922 L15.6182338,29.7317922 L15.6182338,39.7216104 L16.0312208,40.3020779 L16.2072208,40.5257662 L16.2072208,23.2395325 L23.8830649,23.2395325 L23.8830649,46.3 L24.2936623,46.4620779 L24.5702338,46.5557922 L24.5702338,33.7923636 L32.2460779,33.7923636 L32.2460779,47.472987 L32.3455065,47.4654026 L32.9335584,47.3905974 L32.9335584,27.242026 L40.6094026,27.242026 L40.6094026,46.7514286 C39.3167273,47.5136104 37.9306494,48.1337662 36.4736104,48.5903896 L32.9332468,48.5903896 L36.4732987,48.5903896 C35.1263896,49.0126234 33.7177662,49.2958442 32.263013,49.4179221 L32.2457662,49.4192727 L32.2458701,49.4192727 L32.2458701,49.4192727 Z" id="logo-vidi" fill="#FFFFFF"></path>
                <path d="M82.171875,34.7578125 L82.5585938,36.1054688 L82.6289062,36.1054688 L83.015625,34.7578125 L87.421875,21.9375 L89.9179688,21.9375 L83.578125,39 L81.5976562,39 L75.2578125,21.9375 L77.765625,21.9375 L82.171875,34.7578125 L82.171875,34.7578125 Z M94.3476562,39 L92.0390625,39 L92.0390625,26.3203125 L94.3476562,26.3203125 L94.3476562,39 L94.3476562,39 Z M94.3476562,23.0742188 L92.0390625,23.0742188 L92.0390625,20.71875 L94.3476562,20.71875 L94.3476562,23.0742188 L94.3476562,23.0742188 Z M97.3710938,32.8945312 C97.3710938,30.8554586 97.8066363,29.2109437 98.6777344,27.9609375 C99.5488325,26.7109313 100.769523,26.0859375 102.339844,26.0859375 C103.082035,26.0859375 103.740232,26.2226549 104.314453,26.4960938 C104.888675,26.7695326 105.378904,27.1679661 105.785156,27.6914062 L105.785156,20.71875 L108.09375,20.71875 L108.09375,39 L106.207031,39 L105.9375,37.4414062 C105.523435,38.0351592 105.015628,38.4843735 104.414062,38.7890625 C103.812497,39.0937515 103.113285,39.2460938 102.316406,39.2460938 C100.769524,39.2460938 99.5585981,38.6855525 98.6835938,37.5644531 C97.8085894,36.4433538 97.3710938,34.9687591 97.3710938,33.140625 L97.3710938,32.8945312 L97.3710938,32.8945312 Z M99.6796875,33.140625 C99.6796875,34.4218814 99.9414036,35.4472618 100.464844,36.2167969 C100.988284,36.986332 101.800776,37.3710938 102.902344,37.3710938 C103.589847,37.3710938 104.167966,37.2148453 104.636719,36.9023438 C105.105471,36.5898422 105.48828,36.1523466 105.785156,35.5898438 L105.785156,29.671875 C105.48828,29.1484349 105.103518,28.7324234 104.630859,28.4238281 C104.158201,28.1152328 103.589847,27.9609375 102.925781,27.9609375 C101.816401,27.9609375 100.99805,28.4179642 100.470703,29.3320312 C99.9433567,30.2460983 99.6796875,31.4335864 99.6796875,32.8945312 L99.6796875,33.140625 L99.6796875,33.140625 Z M114.035156,39 L111.726562,39 L111.726562,26.3203125 L114.035156,26.3203125 L114.035156,39 L114.035156,39 Z M114.035156,23.0742188 L111.726562,23.0742188 L111.726562,20.71875 L114.035156,20.71875 L114.035156,23.0742188 L114.035156,23.0742188 Z M120.105469,39 L117.796875,39 L117.796875,36.6328125 L120.105469,36.6328125 L120.105469,39 L120.105469,39 Z M120.105469,28.734375 L117.796875,28.734375 L117.796875,26.3671875 L120.105469,26.3671875 L120.105469,28.734375 L120.105469,28.734375 Z M132.480469,39 L130.160156,39 L130.160156,21.9375 L132.480469,21.9375 L132.480469,39 L132.480469,39 Z M138.457031,26.3203125 L138.621094,28.2070312 C139.042971,27.5351529 139.572262,27.0136737 140.208984,26.6425781 C140.845706,26.2714825 141.570308,26.0859375 142.382812,26.0859375 C143.750007,26.0859375 144.80859,26.4863241 145.558594,27.2871094 C146.308597,28.0878946 146.683594,29.3242104 146.683594,30.9960938 L146.683594,39 L144.375,39 L144.375,31.0429688 C144.375,29.9257757 144.154299,29.1328148 143.712891,28.6640625 C143.271482,28.1953102 142.597661,27.9609375 141.691406,27.9609375 C141.02734,27.9609375 140.439456,28.1210921 139.927734,28.4414062 C139.416013,28.7617204 139.007814,29.199216 138.703125,29.7539062 L138.703125,39 L136.394531,39 L136.394531,26.3203125 L138.457031,26.3203125 L138.457031,26.3203125 Z M157.40625,35.6367188 C157.40625,35.1289037 157.212893,34.7109391 156.826172,34.3828125 C156.439451,34.0546859 155.707037,33.7695325 154.628906,33.5273438 C153.089836,33.1914046 151.931645,32.736331 151.154297,32.1621094 C150.376949,31.5878878 149.988281,30.8046925 149.988281,29.8125 C149.988281,28.7812448 150.425777,27.9023474 151.300781,27.1757812 C152.175786,26.4492151 153.316399,26.0859375 154.722656,26.0859375 C156.199226,26.0859375 157.373043,26.46484 158.244141,27.2226562 C159.115239,27.9804725 159.53125,28.9023383 159.492188,29.9882812 L159.46875,30.0585938 L157.265625,30.0585938 C157.265625,29.5039035 157.033205,29.0058616 156.568359,28.5644531 C156.103513,28.1230447 155.488285,27.9023438 154.722656,27.9023438 C153.90234,27.9023438 153.292971,28.0820295 152.894531,28.4414062 C152.496092,28.800783 152.296875,29.2343725 152.296875,29.7421875 C152.296875,30.24219 152.472654,30.6367173 152.824219,30.9257812 C153.175783,31.2148452 153.89062,31.4726551 154.96875,31.6992188 C156.570321,32.0429705 157.761715,32.5097627 158.542969,33.0996094 C159.324223,33.6894561 159.714844,34.4804638 159.714844,35.4726562 C159.714844,36.5976619 159.25977,37.507809 158.349609,38.203125 C157.439449,38.898441 156.250007,39.2460938 154.78125,39.2460938 C153.164054,39.2460938 151.89063,38.8359416 150.960938,38.015625 C150.031245,37.1953084 149.589844,36.2382867 149.636719,35.1445312 L149.660156,35.0742188 L151.863281,35.0742188 C151.902344,35.8945354 152.207028,36.4941387 152.777344,36.8730469 C153.347659,37.251955 154.015621,37.4414062 154.78125,37.4414062 C155.601567,37.4414062 156.244138,37.2753923 156.708984,36.9433594 C157.17383,36.6113265 157.40625,36.1757839 157.40625,35.6367188 L157.40625,35.6367188 L157.40625,35.6367188 Z M165.082031,39 L162.773438,39 L162.773438,26.3203125 L165.082031,26.3203125 L165.082031,39 L165.082031,39 Z M165.082031,23.0742188 L162.773438,23.0742188 L162.773438,20.71875 L165.082031,20.71875 L165.082031,23.0742188 L165.082031,23.0742188 Z M168.128906,32.8945312 C168.128906,30.8554586 168.574214,29.2109437 169.464844,27.9609375 C170.355473,26.7109313 171.58593,26.0859375 173.15625,26.0859375 C173.960942,26.0859375 174.667966,26.2480453 175.277344,26.5722656 C175.886722,26.896486 176.394529,27.3632782 176.800781,27.9726562 L177.082031,26.3203125 L178.921875,26.3203125 L178.921875,39.0703125 C178.921875,40.6953206 178.449223,41.943355 177.503906,42.8144531 C176.558589,43.6855512 175.195321,44.1210938 173.414062,44.1210938 C172.804684,44.1210938 172.146488,44.0371102 171.439453,43.8691406 C170.732418,43.701171 170.109378,43.4726577 169.570312,43.1835938 L170.15625,41.390625 C170.570315,41.6250012 171.07031,41.8144524 171.65625,41.9589844 C172.24219,42.1035163 172.82031,42.1757812 173.390625,42.1757812 C174.515631,42.1757812 175.333982,41.9199244 175.845703,41.4082031 C176.357424,40.8964818 176.613281,40.1171927 176.613281,39.0703125 L176.613281,37.640625 C176.199217,38.1718777 175.703128,38.5722643 175.125,38.8417969 C174.546872,39.1113295 173.882816,39.2460938 173.132812,39.2460938 C171.578117,39.2460938 170.355473,38.6835994 169.464844,37.5585938 C168.574214,36.4335881 168.128906,34.9609466 168.128906,33.140625 L168.128906,32.8945312 L168.128906,32.8945312 Z M170.4375,33.140625 C170.4375,34.4140689 170.707029,35.4374961 171.246094,36.2109375 C171.785159,36.9843789 172.605463,37.3710938 173.707031,37.3710938 C174.402347,37.3710938 174.984373,37.2128922 175.453125,36.8964844 C175.921877,36.5800765 176.308592,36.1328154 176.613281,35.5546875 L176.613281,29.71875 C176.316405,29.1796848 175.92969,28.7519547 175.453125,28.4355469 C174.97656,28.119139 174.402347,27.9609375 173.730469,27.9609375 C172.628901,27.9609375 171.80469,28.4218704 171.257812,29.34375 C170.710935,30.2656296 170.4375,31.4492115 170.4375,32.8945312 L170.4375,33.140625 L170.4375,33.140625 Z M184.582031,28.0195312 C185.019533,27.4101532 185.556637,26.9355486 186.193359,26.5957031 C186.830081,26.2558577 187.535152,26.0859375 188.308594,26.0859375 C189.660163,26.0859375 190.712887,26.4921834 191.466797,27.3046875 C192.220707,28.1171916 192.597656,29.3671791 192.597656,31.0546875 L192.597656,39 L190.289062,39 L190.289062,31.03125 C190.289062,29.9843698 190.064455,29.21094 189.615234,28.7109375 C189.166013,28.210935 188.496098,27.9609375 187.605469,27.9609375 C186.964841,27.9609375 186.384768,28.1113266 185.865234,28.4121094 C185.345701,28.7128921 184.91797,29.1210912 184.582031,29.6367188 L184.582031,39 L182.273438,39 L182.273438,20.71875 L184.582031,20.71875 L184.582031,28.0195312 L184.582031,28.0195312 Z M198.960938,23.2617188 L198.960938,26.3203125 L201.363281,26.3203125 L201.363281,28.03125 L198.960938,28.03125 L198.960938,35.7304688 C198.960938,36.3242217 199.083983,36.7421863 199.330078,36.984375 C199.576173,37.2265637 199.902342,37.3476562 200.308594,37.3476562 C200.441407,37.3476562 200.58789,37.3320314 200.748047,37.3007812 C200.908204,37.2695311 201.050781,37.230469 201.175781,37.1835938 L201.480469,38.765625 C201.308593,38.9062507 201.056642,39.0214839 200.724609,39.1113281 C200.392576,39.2011723 200.058595,39.2460938 199.722656,39.2460938 C198.785152,39.2460938 198.039065,38.9628935 197.484375,38.3964844 C196.929685,37.8300753 196.652344,36.9414123 196.652344,35.7304688 L196.652344,28.03125 L194.636719,28.03125 L194.636719,26.3203125 L196.652344,26.3203125 L196.652344,23.2617188 L198.960938,23.2617188 L198.960938,23.2617188 Z M211.582031,35.6367188 C211.582031,35.1289037 211.388674,34.7109391 211.001953,34.3828125 C210.615232,34.0546859 209.882818,33.7695325 208.804688,33.5273438 C207.265617,33.1914046 206.107426,32.736331 205.330078,32.1621094 C204.55273,31.5878878 204.164062,30.8046925 204.164062,29.8125 C204.164062,28.7812448 204.601558,27.9023474 205.476562,27.1757812 C206.351567,26.4492151 207.49218,26.0859375 208.898438,26.0859375 C210.375007,26.0859375 211.548824,26.46484 212.419922,27.2226562 C213.29102,27.9804725 213.707031,28.9023383 213.667969,29.9882812 L213.644531,30.0585938 L211.441406,30.0585938 C211.441406,29.5039035 211.208987,29.0058616 210.744141,28.5644531 C210.279295,28.1230447 209.664066,27.9023438 208.898438,27.9023438 C208.078121,27.9023438 207.468752,28.0820295 207.070312,28.4414062 C206.671873,28.800783 206.472656,29.2343725 206.472656,29.7421875 C206.472656,30.24219 206.648436,30.6367173 207,30.9257812 C207.351564,31.2148452 208.066401,31.4726551 209.144531,31.6992188 C210.746102,32.0429705 211.937496,32.5097627 212.71875,33.0996094 C213.500004,33.6894561 213.890625,34.4804638 213.890625,35.4726562 C213.890625,36.5976619 213.435551,37.507809 212.525391,38.203125 C211.61523,38.898441 210.425789,39.2460938 208.957031,39.2460938 C207.339836,39.2460938 206.066411,38.8359416 205.136719,38.015625 C204.207027,37.1953084 203.765625,36.2382867 203.8125,35.1445312 L203.835938,35.0742188 L206.039062,35.0742188 C206.078125,35.8945354 206.38281,36.4941387 206.953125,36.8730469 C207.52344,37.251955 208.191402,37.4414062 208.957031,37.4414062 C209.777348,37.4414062 210.41992,37.2753923 210.884766,36.9433594 C211.349612,36.6113265 211.582031,36.1757839 211.582031,35.6367188 L211.582031,35.6367188 L211.582031,35.6367188 Z" id="Vidi:-Insights" fill="#FFFFFF"></path>
            </g>
        </g>
    </g>
</svg>