<?xml version="1.0" encoding="UTF-8" standalone="no"?>
<svg width="200px" height="200px" viewBox="0 0 200 200" version="1.1" xmlns="http://www.w3.org/2000/svg" xmlns:xlink="http://www.w3.org/1999/xlink" xmlns:sketch="http://www.bohemiancoding.com/sketch/ns">
    <!-- Generator: Sketch 3.5.2 (25235) - http://www.bohemiancoding.com/sketch -->
    <title>Untitled 2</title>
    <desc>Created with Sketch.</desc>
    <defs></defs>
    <g id="Page-1" stroke="none" stroke-width="1" fill="none" fill-rule="evenodd" sketch:type="MSPage">
        <rect id="background" fill="#FFFFFF" sketch:type="MSShapeGroup" x="0" y="0" width="200" height="200"></rect>
        <path d="M75.6857143,163.5 C68.437013,160.646494 61.7992208,156.576623 56.0267532,151.540909 C61.8007792,156.580519 68.437013,160.652338 75.6853247,163.50039 L75.6857143,163.5 Z M107.047013,175.197273 C104.892468,175.404545 102.706753,175.5 100.5,175.5 C92.7872727,175.5 85.3449351,174.333117 78.3448052,172.166883 L78.262987,172.141169 C77.0497403,171.764416 75.8501299,171.358052 74.6551948,170.918571 C64.1033766,167.04 54.6615584,160.856494 46.9461039,152.963766 L46.9009091,152.917792 L44.992987,150.916753 L44.6922078,150.57 C32.9481818,137.502857 25.732987,120.294935 25.5233766,101.424156 L25.5225974,101.368831 L25.5,100.5 C25.5,59.1062338 59.1066234,25.5 100.5,25.5 C141.893377,25.5 175.5,59.1062338 175.5,100.5 C175.5,110.329091 173.604935,119.719481 170.138961,128.319351 L170.105844,128.404286 C164.331039,142.811299 154.208182,155.012338 141.354935,163.367922 L139.378052,164.635714 L138.409091,165.192857 L138.409091,156.607792 L141.007013,154.759091 L141.354935,154.485584 C155.582338,143.707792 165.421169,127.438052 167.69026,108.835714 L167.683636,108.89026 C165.392727,127.467662 155.563636,143.720649 141.355325,154.485584 L141.355325,108.835714 L167.690649,108.835714 L167.699221,108.771818 C168.04987,106.066753 168.221299,103.303247 168.221299,100.50039 C168.221299,63.1250649 137.876494,32.7802597 100.500779,32.7802597 C63.1246753,32.7802597 32.7806494,63.1246753 32.7806494,100.50039 L32.8024675,101.369221 L44.6933766,101.369221 L44.6933766,138.831039 L46.2420779,141.007792 L46.9020779,141.846623 L46.9020779,77.0232468 L75.6864935,77.0232468 L75.6864935,163.5 L77.2262338,164.107792 L78.2633766,164.459221 L78.2633766,116.596364 L107.047792,116.596364 L107.047792,167.898701 L107.420649,167.87026 L109.625844,167.58974 L109.625844,92.0325974 L138.41026,92.0325974 L138.41026,165.192857 C133.562727,168.051039 128.364935,170.376623 122.901039,172.088961 L109.624675,172.088961 L122.89987,172.088961 C117.848961,173.672338 112.566623,174.734416 107.111299,175.192208 L107.046623,175.197273 L107.047013,175.197273 Z" id="logo-vidi" fill="#1C8DC6" sketch:type="MSShapeGroup"></path>
    </g>
</svg>